<svg width="155" height="28" viewBox="0 0 155 28" fill="none" xmlns="http://www.w3.org/2000/svg">
<rect width="155" height="28" fill="white"/>
<rect x="2" y="2" width="23" height="24" fill="black"/>
<path d="M31.342 11.55H33.916L34.834 15.366L35.482 18.246H35.554L36.31 15.366L37.39 11.55H39.82L40.918 15.366L41.692 18.246H41.764L42.412 15.366L43.33 11.55H45.796L43.186 21H40.396L39.244 17.004L38.578 14.556H38.524L37.876 17.004L36.724 21H33.988L31.342 11.55ZM47.8448 13.62H46.5128V11.55H47.8448V10.434C47.8448 9.522 48.0848 8.838 48.5648 8.382C49.0448 7.914 49.7468 7.68 50.6708 7.68H52.3988V9.75H50.5088V11.55H52.3988V13.62H50.5088V21H47.8448V13.62ZM57.6264 21.216C56.9184 21.216 56.2884 21.102 55.7364 20.874C55.1844 20.634 54.7224 20.304 54.3504 19.884C53.9784 19.452 53.6964 18.93 53.5044 18.318C53.3124 17.706 53.2164 17.022 53.2164 16.266C53.2164 15.51 53.3124 14.832 53.5044 14.232C53.6964 13.62 53.9784 13.098 54.3504 12.666C54.7224 12.234 55.1844 11.904 55.7364 11.676C56.2884 11.448 56.9184 11.334 57.6264 11.334C58.5864 11.334 59.3844 11.55 60.0204 11.982C60.6684 12.414 61.1304 13.02 61.4064 13.8L59.2464 14.736C59.1624 14.376 58.9884 14.07 58.7244 13.818C58.4604 13.566 58.0944 13.44 57.6264 13.44C57.0864 13.44 56.6784 13.62 56.4024 13.98C56.1264 14.328 55.9884 14.802 55.9884 15.402V17.166C55.9884 17.766 56.1264 18.24 56.4024 18.588C56.6784 18.936 57.0864 19.11 57.6264 19.11C58.1064 19.11 58.4844 18.984 58.7604 18.732C59.0484 18.468 59.2584 18.126 59.3904 17.706L61.4604 18.606C61.1484 19.506 60.6624 20.166 60.0024 20.586C59.3544 21.006 58.5624 21.216 57.6264 21.216ZM76.1111 21.684C76.1111 22.188 76.0211 22.632 75.8411 23.016C75.6731 23.4 75.3911 23.724 74.9951 23.988C74.5991 24.264 74.0711 24.468 73.4111 24.6C72.7631 24.744 71.9591 24.816 70.9991 24.816C70.1831 24.816 69.4871 24.762 68.9111 24.654C68.3471 24.558 67.8851 24.414 67.5251 24.222C67.1771 24.042 66.9191 23.814 66.7511 23.538C66.5951 23.274 66.5171 22.968 66.5171 22.62C66.5171 22.092 66.6731 21.678 66.9851 21.378C67.2971 21.078 67.7291 20.892 68.2811 20.82V20.622C67.8251 20.538 67.4831 20.346 67.2551 20.046C67.0271 19.734 66.9131 19.374 66.9131 18.966C66.9131 18.714 66.9611 18.498 67.0571 18.318C67.1651 18.126 67.2971 17.964 67.4531 17.832C67.6211 17.688 67.8131 17.574 68.0291 17.49C68.2451 17.406 68.4611 17.34 68.6771 17.292V17.22C68.1011 16.956 67.6751 16.596 67.3991 16.14C67.1231 15.672 66.9851 15.132 66.9851 14.52C66.9851 13.56 67.3151 12.792 67.9751 12.216C68.6471 11.628 69.6671 11.334 71.0351 11.334C71.6591 11.334 72.1931 11.394 72.6371 11.514V11.154C72.6371 10.65 72.7571 10.29 72.9971 10.074C73.2491 9.846 73.6031 9.732 74.0591 9.732H75.5531V11.712H73.4651V11.82C74.0171 12.084 74.4251 12.45 74.6891 12.918C74.9531 13.374 75.0851 13.908 75.0851 14.52C75.0851 15.468 74.7491 16.23 74.0771 16.806C73.4171 17.37 72.4031 17.652 71.0351 17.652C70.4231 17.652 69.8651 17.586 69.3611 17.454C69.0851 17.634 68.9471 17.886 68.9471 18.21C68.9471 18.438 69.0311 18.618 69.1991 18.75C69.3791 18.87 69.6731 18.93 70.0811 18.93H72.8171C73.9691 18.93 74.8031 19.17 75.3191 19.65C75.8471 20.13 76.1111 20.808 76.1111 21.684ZM73.6091 22.044C73.6091 21.768 73.5011 21.558 73.2851 21.414C73.0691 21.27 72.6911 21.198 72.1511 21.198H68.9111C68.7911 21.318 68.7011 21.45 68.6411 21.594C68.5931 21.75 68.5691 21.9 68.5691 22.044C68.5691 22.392 68.7191 22.644 69.0191 22.8C69.3191 22.968 69.8291 23.052 70.5491 23.052H71.6291C72.3491 23.052 72.8591 22.968 73.1591 22.8C73.4591 22.644 73.6091 22.392 73.6091 22.044ZM71.0351 15.906C71.5631 15.906 71.9531 15.798 72.2051 15.582C72.4691 15.354 72.6011 15.03 72.6011 14.61V14.394C72.6011 13.974 72.4691 13.656 72.2051 13.44C71.9531 13.212 71.5631 13.098 71.0351 13.098C70.5071 13.098 70.1111 13.212 69.8471 13.44C69.5951 13.656 69.4691 13.974 69.4691 14.394V14.61C69.4691 15.03 69.5951 15.354 69.8471 15.582C70.1111 15.798 70.5071 15.906 71.0351 15.906ZM81.1313 21.216C80.4113 21.216 79.7693 21.102 79.2053 20.874C78.6413 20.634 78.1613 20.304 77.7653 19.884C77.3813 19.452 77.0873 18.93 76.8833 18.318C76.6913 17.706 76.5953 17.022 76.5953 16.266C76.5953 15.522 76.6913 14.85 76.8833 14.25C77.0753 13.638 77.3573 13.116 77.7293 12.684C78.1133 12.252 78.5813 11.922 79.1333 11.694C79.6853 11.454 80.3153 11.334 81.0233 11.334C81.8033 11.334 82.4693 11.466 83.0213 11.73C83.5853 11.994 84.0413 12.348 84.3893 12.792C84.7493 13.236 85.0073 13.752 85.1633 14.34C85.3313 14.916 85.4153 15.522 85.4153 16.158V16.95H79.3493V17.094C79.3493 17.718 79.5173 18.216 79.8533 18.588C80.1893 18.948 80.7173 19.128 81.4373 19.128C81.9893 19.128 82.4393 19.02 82.7873 18.804C83.1353 18.576 83.4593 18.306 83.7593 17.994L85.0913 19.65C84.6713 20.142 84.1193 20.526 83.4353 20.802C82.7633 21.078 81.9953 21.216 81.1313 21.216ZM81.0773 13.296C80.5373 13.296 80.1113 13.476 79.7993 13.836C79.4993 14.184 79.3493 14.652 79.3493 15.24V15.384H82.6613V15.222C82.6613 14.646 82.5293 14.184 82.2653 13.836C82.0133 13.476 81.6173 13.296 81.0773 13.296ZM87.2967 21V11.55H89.9607V13.152H90.0687C90.2367 12.66 90.5307 12.234 90.9507 11.874C91.3707 11.514 91.9527 11.334 92.6967 11.334C93.6687 11.334 94.4007 11.658 94.8927 12.306C95.3967 12.954 95.6487 13.878 95.6487 15.078V21H92.9847V15.294C92.9847 14.682 92.8887 14.232 92.6967 13.944C92.5047 13.644 92.1627 13.494 91.6707 13.494C91.4547 13.494 91.2447 13.524 91.0407 13.584C90.8367 13.632 90.6507 13.716 90.4827 13.836C90.3267 13.956 90.2007 14.106 90.1047 14.286C90.0087 14.454 89.9607 14.652 89.9607 14.88V21H87.2967ZM101.961 21.216C101.241 21.216 100.599 21.102 100.035 20.874C99.4713 20.634 98.9913 20.304 98.5953 19.884C98.2113 19.452 97.9173 18.93 97.7133 18.318C97.5213 17.706 97.4253 17.022 97.4253 16.266C97.4253 15.522 97.5213 14.85 97.7133 14.25C97.9053 13.638 98.1873 13.116 98.5593 12.684C98.9433 12.252 99.4113 11.922 99.9633 11.694C100.515 11.454 101.145 11.334 101.853 11.334C102.633 11.334 103.299 11.466 103.851 11.73C104.415 11.994 104.871 12.348 105.219 12.792C105.579 13.236 105.837 13.752 105.993 14.34C106.161 14.916 106.245 15.522 106.245 16.158V16.95H100.179V17.094C100.179 17.718 100.347 18.216 100.683 18.588C101.019 18.948 101.547 19.128 102.267 19.128C102.819 19.128 103.269 19.02 103.617 18.804C103.965 18.576 104.289 18.306 104.589 17.994L105.921 19.65C105.501 20.142 104.949 20.526 104.265 20.802C103.593 21.078 102.825 21.216 101.961 21.216ZM101.907 13.296C101.367 13.296 100.941 13.476 100.629 13.836C100.329 14.184 100.179 14.652 100.179 15.24V15.384H103.491V15.222C103.491 14.646 103.359 14.184 103.095 13.836C102.843 13.476 102.447 13.296 101.907 13.296ZM108.127 21V11.55H110.791V13.602H110.881C110.929 13.338 111.013 13.086 111.133 12.846C111.253 12.594 111.409 12.372 111.601 12.18C111.805 11.988 112.045 11.838 112.321 11.73C112.597 11.61 112.921 11.55 113.293 11.55H113.761V14.034H113.095C112.315 14.034 111.733 14.136 111.349 14.34C110.977 14.544 110.791 14.922 110.791 15.474V21H108.127ZM122.142 21C121.662 21 121.26 20.85 120.936 20.55C120.624 20.25 120.426 19.848 120.342 19.344H120.234C120.09 19.956 119.772 20.424 119.28 20.748C118.788 21.06 118.182 21.216 117.462 21.216C116.514 21.216 115.788 20.964 115.284 20.46C114.78 19.956 114.528 19.29 114.528 18.462C114.528 17.466 114.888 16.728 115.608 16.248C116.34 15.756 117.33 15.51 118.578 15.51H120.072V14.916C120.072 14.46 119.952 14.1 119.712 13.836C119.472 13.56 119.07 13.422 118.506 13.422C117.978 13.422 117.558 13.536 117.246 13.764C116.934 13.992 116.676 14.25 116.472 14.538L114.888 13.134C115.272 12.57 115.752 12.132 116.328 11.82C116.916 11.496 117.708 11.334 118.704 11.334C120.048 11.334 121.056 11.628 121.728 12.216C122.4 12.804 122.736 13.662 122.736 14.79V18.93H123.618V21H122.142ZM118.452 19.362C118.896 19.362 119.274 19.266 119.586 19.074C119.91 18.882 120.072 18.57 120.072 18.138V17.022H118.776C117.732 17.022 117.21 17.376 117.21 18.084V18.354C117.21 18.702 117.318 18.96 117.534 19.128C117.75 19.284 118.056 19.362 118.452 19.362ZM128.613 21C127.689 21 126.987 20.766 126.507 20.298C126.039 19.83 125.805 19.146 125.805 18.246V13.62H124.473V11.55H125.139C125.499 11.55 125.745 11.466 125.877 11.298C126.009 11.118 126.075 10.866 126.075 10.542V8.994H128.469V11.55H130.341V13.62H128.469V18.93H130.197V21H128.613ZM135.955 21.216C135.259 21.216 134.635 21.102 134.083 20.874C133.543 20.646 133.081 20.316 132.697 19.884C132.325 19.452 132.037 18.93 131.833 18.318C131.629 17.706 131.527 17.022 131.527 16.266C131.527 15.51 131.629 14.826 131.833 14.214C132.037 13.602 132.325 13.086 132.697 12.666C133.081 12.234 133.543 11.904 134.083 11.676C134.635 11.448 135.259 11.334 135.955 11.334C136.651 11.334 137.269 11.448 137.809 11.676C138.361 11.904 138.823 12.234 139.195 12.666C139.579 13.086 139.873 13.602 140.077 14.214C140.281 14.826 140.383 15.51 140.383 16.266C140.383 17.022 140.281 17.706 140.077 18.318C139.873 18.93 139.579 19.452 139.195 19.884C138.823 20.316 138.361 20.646 137.809 20.874C137.269 21.102 136.651 21.216 135.955 21.216ZM135.955 19.11C136.483 19.11 136.891 18.948 137.179 18.624C137.467 18.3 137.611 17.838 137.611 17.238V15.312C137.611 14.712 137.467 14.25 137.179 13.926C136.891 13.602 136.483 13.44 135.955 13.44C135.427 13.44 135.019 13.602 134.731 13.926C134.443 14.25 134.299 14.712 134.299 15.312V17.238C134.299 17.838 134.443 18.3 134.731 18.624C135.019 18.948 135.427 19.11 135.955 19.11ZM142.281 21V11.55H144.945V13.602H145.035C145.083 13.338 145.167 13.086 145.287 12.846C145.407 12.594 145.563 12.372 145.755 12.18C145.959 11.988 146.199 11.838 146.475 11.73C146.751 11.61 147.075 11.55 147.447 11.55H147.915V14.034H147.249C146.469 14.034 145.887 14.136 145.503 14.34C145.131 14.544 144.945 14.922 144.945 15.474V21H142.281Z" fill="black"/>
</svg>
